<mxfile host="app.diagrams.net" modified="2022-06-01T02:27:47.679Z" agent="5.0 (Macintosh; Intel Mac OS X 10_15_7) AppleWebKit/537.36 (KHTML, like Gecko) Chrome/101.0.4951.64 Safari/537.36" etag="MYZckLTuqOoM4GshBKgt" version="18.2.0" type="github">
  <diagram id="C5RBs43oDa-KdzZeNtuy" name="Page-1">
    <mxGraphModel dx="2852" dy="1588" grid="1" gridSize="10" guides="1" tooltips="1" connect="1" arrows="1" fold="1" page="1" pageScale="1" pageWidth="827" pageHeight="1169" math="0" shadow="0">
      <root>
        <mxCell id="WIyWlLk6GJQsqaUBKTNV-0" />
        <mxCell id="WIyWlLk6GJQsqaUBKTNV-1" parent="WIyWlLk6GJQsqaUBKTNV-0" />
        <mxCell id="ntU1Ky-i2cuIiQ6jgLuQ-3" value="" style="edgeStyle=orthogonalEdgeStyle;rounded=0;orthogonalLoop=1;jettySize=auto;html=1;exitX=0.5;exitY=1;exitDx=0;exitDy=0;" edge="1" parent="WIyWlLk6GJQsqaUBKTNV-1" source="WIyWlLk6GJQsqaUBKTNV-3" target="ntU1Ky-i2cuIiQ6jgLuQ-2">
          <mxGeometry relative="1" as="geometry">
            <mxPoint x="215" y="50" as="sourcePoint" />
            <Array as="points">
              <mxPoint x="220" y="50" />
            </Array>
          </mxGeometry>
        </mxCell>
        <mxCell id="WIyWlLk6GJQsqaUBKTNV-3" value="&lt;span style=&quot;font-family: Arial;&quot;&gt;로봇 전원 공급&lt;/span&gt;" style="rounded=0;whiteSpace=wrap;html=1;fontSize=12;glass=0;strokeWidth=1;shadow=0;" parent="WIyWlLk6GJQsqaUBKTNV-1" vertex="1">
          <mxGeometry x="160" y="10" width="120" height="40" as="geometry" />
        </mxCell>
        <mxCell id="ntU1Ky-i2cuIiQ6jgLuQ-5" value="" style="edgeStyle=orthogonalEdgeStyle;rounded=0;orthogonalLoop=1;jettySize=auto;html=1;" edge="1" parent="WIyWlLk6GJQsqaUBKTNV-1" source="ntU1Ky-i2cuIiQ6jgLuQ-2" target="ntU1Ky-i2cuIiQ6jgLuQ-4">
          <mxGeometry relative="1" as="geometry" />
        </mxCell>
        <mxCell id="ntU1Ky-i2cuIiQ6jgLuQ-2" value="&lt;p style=&quot;margin: 0px; padding: 0px; border: 0px none; line-height: 0px; overflow-wrap: break-word; font-family: Arial;&quot;&gt;&lt;span style=&quot;line-height: 14px;&quot;&gt;카메라로&lt;/span&gt;&lt;/p&gt;&lt;p style=&quot;margin: 0px; padding: 0px; border: 0px none; line-height: 0px; overflow-wrap: break-word; font-family: Arial;&quot;&gt;&lt;span style=&quot;line-height: 14px;&quot;&gt;주변 환경 관찰&lt;/span&gt;&lt;/p&gt;" style="rounded=1;whiteSpace=wrap;html=1;fontSize=12;glass=0;strokeWidth=1;shadow=0;" vertex="1" parent="WIyWlLk6GJQsqaUBKTNV-1">
          <mxGeometry x="160" y="120" width="120" height="40" as="geometry" />
        </mxCell>
        <mxCell id="ntU1Ky-i2cuIiQ6jgLuQ-10" value="" style="edgeStyle=orthogonalEdgeStyle;rounded=0;orthogonalLoop=1;jettySize=auto;html=1;startArrow=none;" edge="1" parent="WIyWlLk6GJQsqaUBKTNV-1" source="ntU1Ky-i2cuIiQ6jgLuQ-40" target="ntU1Ky-i2cuIiQ6jgLuQ-9">
          <mxGeometry relative="1" as="geometry" />
        </mxCell>
        <mxCell id="ntU1Ky-i2cuIiQ6jgLuQ-4" value="&lt;p style=&quot;margin: 0px; padding: 0px; border: 0px none; line-height: 0px; overflow-wrap: break-word; font-family: Arial;&quot;&gt;컨베이어 벨트와 모터 작동&lt;/p&gt;&lt;p style=&quot;margin: 0px; padding: 0px; border: 0px none; line-height: 0px; overflow-wrap: break-word; font-family: Arial;&quot;&gt;&lt;br&gt;&lt;/p&gt;" style="rounded=1;whiteSpace=wrap;html=1;fontSize=12;glass=0;strokeWidth=1;shadow=0;" vertex="1" parent="WIyWlLk6GJQsqaUBKTNV-1">
          <mxGeometry x="155" y="200" width="130" height="70" as="geometry" />
        </mxCell>
        <mxCell id="ntU1Ky-i2cuIiQ6jgLuQ-6" style="edgeStyle=orthogonalEdgeStyle;rounded=0;orthogonalLoop=1;jettySize=auto;html=1;exitX=0.5;exitY=1;exitDx=0;exitDy=0;" edge="1" parent="WIyWlLk6GJQsqaUBKTNV-1" source="ntU1Ky-i2cuIiQ6jgLuQ-4" target="ntU1Ky-i2cuIiQ6jgLuQ-4">
          <mxGeometry relative="1" as="geometry" />
        </mxCell>
        <mxCell id="ntU1Ky-i2cuIiQ6jgLuQ-13" value="" style="edgeStyle=orthogonalEdgeStyle;rounded=0;orthogonalLoop=1;jettySize=auto;html=1;" edge="1" parent="WIyWlLk6GJQsqaUBKTNV-1" source="ntU1Ky-i2cuIiQ6jgLuQ-7" target="ntU1Ky-i2cuIiQ6jgLuQ-12">
          <mxGeometry relative="1" as="geometry" />
        </mxCell>
        <mxCell id="ntU1Ky-i2cuIiQ6jgLuQ-7" value="쓰레기의 유무" style="rhombus;whiteSpace=wrap;html=1;rounded=1;glass=0;strokeWidth=1;shadow=0;" vertex="1" parent="WIyWlLk6GJQsqaUBKTNV-1">
          <mxGeometry x="180" y="530" width="80" height="80" as="geometry" />
        </mxCell>
        <mxCell id="ntU1Ky-i2cuIiQ6jgLuQ-15" value="" style="edgeStyle=orthogonalEdgeStyle;rounded=0;orthogonalLoop=1;jettySize=auto;html=1;exitX=1;exitY=0.5;exitDx=0;exitDy=0;entryX=0;entryY=0.5;entryDx=0;entryDy=0;" edge="1" parent="WIyWlLk6GJQsqaUBKTNV-1" source="ntU1Ky-i2cuIiQ6jgLuQ-7" target="ntU1Ky-i2cuIiQ6jgLuQ-14">
          <mxGeometry relative="1" as="geometry">
            <Array as="points">
              <mxPoint x="380" y="570" />
            </Array>
          </mxGeometry>
        </mxCell>
        <mxCell id="ntU1Ky-i2cuIiQ6jgLuQ-9" value="&lt;p style=&quot;margin: 0px; padding: 0px; border: 0px none; line-height: 0px; overflow-wrap: break-word; font-family: Arial;&quot;&gt;카메라로 쓰레기 탐색하기&lt;/p&gt;&lt;p style=&quot;margin: 0px; padding: 0px; border: 0px none; line-height: 0px; overflow-wrap: break-word; font-family: Arial;&quot;&gt;&lt;br&gt;&lt;/p&gt;" style="rounded=1;whiteSpace=wrap;html=1;fontSize=12;glass=0;strokeWidth=1;shadow=0;" vertex="1" parent="WIyWlLk6GJQsqaUBKTNV-1">
          <mxGeometry x="155" y="430" width="130" height="50" as="geometry" />
        </mxCell>
        <mxCell id="ntU1Ky-i2cuIiQ6jgLuQ-11" value="" style="endArrow=classic;html=1;rounded=0;exitX=0.5;exitY=1;exitDx=0;exitDy=0;entryX=0.5;entryY=0;entryDx=0;entryDy=0;" edge="1" parent="WIyWlLk6GJQsqaUBKTNV-1" source="ntU1Ky-i2cuIiQ6jgLuQ-9" target="ntU1Ky-i2cuIiQ6jgLuQ-7">
          <mxGeometry width="50" height="50" relative="1" as="geometry">
            <mxPoint x="390" y="430" as="sourcePoint" />
            <mxPoint x="440" y="380" as="targetPoint" />
          </mxGeometry>
        </mxCell>
        <mxCell id="ntU1Ky-i2cuIiQ6jgLuQ-23" value="" style="edgeStyle=orthogonalEdgeStyle;rounded=0;orthogonalLoop=1;jettySize=auto;html=1;" edge="1" parent="WIyWlLk6GJQsqaUBKTNV-1" source="ntU1Ky-i2cuIiQ6jgLuQ-12" target="ntU1Ky-i2cuIiQ6jgLuQ-22">
          <mxGeometry relative="1" as="geometry" />
        </mxCell>
        <mxCell id="ntU1Ky-i2cuIiQ6jgLuQ-12" value="쓰레기와 카메라의 거리 측정하기" style="whiteSpace=wrap;html=1;rounded=1;glass=0;strokeWidth=1;shadow=0;" vertex="1" parent="WIyWlLk6GJQsqaUBKTNV-1">
          <mxGeometry x="160" y="700" width="120" height="60" as="geometry" />
        </mxCell>
        <mxCell id="ntU1Ky-i2cuIiQ6jgLuQ-19" style="edgeStyle=orthogonalEdgeStyle;rounded=0;orthogonalLoop=1;jettySize=auto;html=1;entryX=1;entryY=0.5;entryDx=0;entryDy=0;" edge="1" parent="WIyWlLk6GJQsqaUBKTNV-1" source="ntU1Ky-i2cuIiQ6jgLuQ-14" target="ntU1Ky-i2cuIiQ6jgLuQ-9">
          <mxGeometry relative="1" as="geometry">
            <Array as="points">
              <mxPoint x="440" y="455" />
            </Array>
          </mxGeometry>
        </mxCell>
        <mxCell id="ntU1Ky-i2cuIiQ6jgLuQ-14" value="지정된 경로를 따라가기" style="whiteSpace=wrap;html=1;rounded=1;glass=0;strokeWidth=1;shadow=0;" vertex="1" parent="WIyWlLk6GJQsqaUBKTNV-1">
          <mxGeometry x="380" y="540" width="120" height="60" as="geometry" />
        </mxCell>
        <mxCell id="ntU1Ky-i2cuIiQ6jgLuQ-17" value="없다" style="text;strokeColor=none;fillColor=none;html=1;whiteSpace=wrap;verticalAlign=middle;overflow=hidden;" vertex="1" parent="WIyWlLk6GJQsqaUBKTNV-1">
          <mxGeometry x="285" y="520" width="100" height="80" as="geometry" />
        </mxCell>
        <mxCell id="ntU1Ky-i2cuIiQ6jgLuQ-18" value="&lt;div&gt;있다&lt;/div&gt;" style="text;strokeColor=none;fillColor=none;html=1;whiteSpace=wrap;verticalAlign=middle;overflow=hidden;" vertex="1" parent="WIyWlLk6GJQsqaUBKTNV-1">
          <mxGeometry x="220" y="610" width="100" height="80" as="geometry" />
        </mxCell>
        <mxCell id="ntU1Ky-i2cuIiQ6jgLuQ-25" value="" style="edgeStyle=orthogonalEdgeStyle;rounded=0;orthogonalLoop=1;jettySize=auto;html=1;" edge="1" parent="WIyWlLk6GJQsqaUBKTNV-1" source="ntU1Ky-i2cuIiQ6jgLuQ-22" target="ntU1Ky-i2cuIiQ6jgLuQ-24">
          <mxGeometry relative="1" as="geometry" />
        </mxCell>
        <mxCell id="ntU1Ky-i2cuIiQ6jgLuQ-27" value="" style="edgeStyle=orthogonalEdgeStyle;rounded=0;orthogonalLoop=1;jettySize=auto;html=1;" edge="1" parent="WIyWlLk6GJQsqaUBKTNV-1" source="ntU1Ky-i2cuIiQ6jgLuQ-22" target="ntU1Ky-i2cuIiQ6jgLuQ-26">
          <mxGeometry relative="1" as="geometry" />
        </mxCell>
        <mxCell id="ntU1Ky-i2cuIiQ6jgLuQ-22" value="카메라로 장애물 찾기" style="rhombus;whiteSpace=wrap;html=1;rounded=1;glass=0;strokeWidth=1;shadow=0;" vertex="1" parent="WIyWlLk6GJQsqaUBKTNV-1">
          <mxGeometry x="160" y="800" width="120" height="110" as="geometry" />
        </mxCell>
        <mxCell id="ntU1Ky-i2cuIiQ6jgLuQ-36" style="edgeStyle=orthogonalEdgeStyle;rounded=0;orthogonalLoop=1;jettySize=auto;html=1;entryX=1;entryY=0.5;entryDx=0;entryDy=0;" edge="1" parent="WIyWlLk6GJQsqaUBKTNV-1" source="ntU1Ky-i2cuIiQ6jgLuQ-24" target="ntU1Ky-i2cuIiQ6jgLuQ-34">
          <mxGeometry relative="1" as="geometry">
            <Array as="points">
              <mxPoint x="440" y="1300" />
            </Array>
          </mxGeometry>
        </mxCell>
        <mxCell id="ntU1Ky-i2cuIiQ6jgLuQ-24" value="방향을 감지된 쓰레기로 바꾸기" style="whiteSpace=wrap;html=1;rounded=1;glass=0;strokeWidth=1;shadow=0;" vertex="1" parent="WIyWlLk6GJQsqaUBKTNV-1">
          <mxGeometry x="380" y="825" width="120" height="60" as="geometry" />
        </mxCell>
        <mxCell id="ntU1Ky-i2cuIiQ6jgLuQ-30" style="edgeStyle=orthogonalEdgeStyle;rounded=0;orthogonalLoop=1;jettySize=auto;html=1;" edge="1" parent="WIyWlLk6GJQsqaUBKTNV-1" source="ntU1Ky-i2cuIiQ6jgLuQ-26">
          <mxGeometry relative="1" as="geometry">
            <mxPoint x="220" y="1140" as="targetPoint" />
          </mxGeometry>
        </mxCell>
        <mxCell id="ntU1Ky-i2cuIiQ6jgLuQ-26" value="Pixel_per_metric로 장애물의 크기 찾기" style="whiteSpace=wrap;html=1;rounded=1;glass=0;strokeWidth=1;shadow=0;" vertex="1" parent="WIyWlLk6GJQsqaUBKTNV-1">
          <mxGeometry x="160" y="1015" width="120" height="60" as="geometry" />
        </mxCell>
        <mxCell id="ntU1Ky-i2cuIiQ6jgLuQ-28" value="장애물이 없다" style="text;strokeColor=none;fillColor=none;html=1;whiteSpace=wrap;verticalAlign=middle;overflow=hidden;" vertex="1" parent="WIyWlLk6GJQsqaUBKTNV-1">
          <mxGeometry x="300" y="805" width="100" height="80" as="geometry" />
        </mxCell>
        <mxCell id="ntU1Ky-i2cuIiQ6jgLuQ-29" value="&lt;div&gt;장애물이 있다&lt;/div&gt;" style="text;strokeColor=none;fillColor=none;html=1;whiteSpace=wrap;verticalAlign=middle;overflow=hidden;" vertex="1" parent="WIyWlLk6GJQsqaUBKTNV-1">
          <mxGeometry x="230" y="920" width="100" height="80" as="geometry" />
        </mxCell>
        <mxCell id="ntU1Ky-i2cuIiQ6jgLuQ-35" value="" style="edgeStyle=orthogonalEdgeStyle;rounded=0;orthogonalLoop=1;jettySize=auto;html=1;" edge="1" parent="WIyWlLk6GJQsqaUBKTNV-1" source="ntU1Ky-i2cuIiQ6jgLuQ-32" target="ntU1Ky-i2cuIiQ6jgLuQ-34">
          <mxGeometry relative="1" as="geometry" />
        </mxCell>
        <mxCell id="ntU1Ky-i2cuIiQ6jgLuQ-32" value="경로를 장애물의 크기에 따라 변경함" style="rounded=1;whiteSpace=wrap;html=1;" vertex="1" parent="WIyWlLk6GJQsqaUBKTNV-1">
          <mxGeometry x="160" y="1140" width="120" height="60" as="geometry" />
        </mxCell>
        <mxCell id="ntU1Ky-i2cuIiQ6jgLuQ-37" style="edgeStyle=orthogonalEdgeStyle;rounded=0;orthogonalLoop=1;jettySize=auto;html=1;exitX=0.5;exitY=1;exitDx=0;exitDy=0;entryX=0;entryY=0.5;entryDx=0;entryDy=0;" edge="1" parent="WIyWlLk6GJQsqaUBKTNV-1" source="ntU1Ky-i2cuIiQ6jgLuQ-34" target="ntU1Ky-i2cuIiQ6jgLuQ-40">
          <mxGeometry relative="1" as="geometry">
            <Array as="points">
              <mxPoint x="220" y="1350" />
              <mxPoint x="135" y="1350" />
              <mxPoint x="135" y="340" />
            </Array>
          </mxGeometry>
        </mxCell>
        <mxCell id="ntU1Ky-i2cuIiQ6jgLuQ-34" value="쓰레기를 선체 앞에 위치하고 쓰레기를 켄베이어 벨트 위에 놓도록 방향을 앞으로 수정" style="rounded=1;whiteSpace=wrap;html=1;" vertex="1" parent="WIyWlLk6GJQsqaUBKTNV-1">
          <mxGeometry x="160" y="1270" width="120" height="60" as="geometry" />
        </mxCell>
        <mxCell id="ntU1Ky-i2cuIiQ6jgLuQ-47" value="" style="edgeStyle=orthogonalEdgeStyle;rounded=0;orthogonalLoop=1;jettySize=auto;html=1;" edge="1" parent="WIyWlLk6GJQsqaUBKTNV-1" source="ntU1Ky-i2cuIiQ6jgLuQ-40" target="ntU1Ky-i2cuIiQ6jgLuQ-46">
          <mxGeometry relative="1" as="geometry" />
        </mxCell>
        <mxCell id="ntU1Ky-i2cuIiQ6jgLuQ-40" value="배터리가 15%이상" style="rhombus;whiteSpace=wrap;html=1;" vertex="1" parent="WIyWlLk6GJQsqaUBKTNV-1">
          <mxGeometry x="145" y="300" width="150" height="80" as="geometry" />
        </mxCell>
        <mxCell id="ntU1Ky-i2cuIiQ6jgLuQ-41" value="" style="edgeStyle=orthogonalEdgeStyle;rounded=0;orthogonalLoop=1;jettySize=auto;html=1;endArrow=none;entryX=0.5;entryY=0;entryDx=0;entryDy=0;" edge="1" parent="WIyWlLk6GJQsqaUBKTNV-1" target="ntU1Ky-i2cuIiQ6jgLuQ-40">
          <mxGeometry relative="1" as="geometry">
            <mxPoint x="220" y="300" as="sourcePoint" />
            <mxPoint x="215" y="300" as="targetPoint" />
          </mxGeometry>
        </mxCell>
        <mxCell id="ntU1Ky-i2cuIiQ6jgLuQ-43" value="" style="edgeStyle=orthogonalEdgeStyle;rounded=0;orthogonalLoop=1;jettySize=auto;html=1;exitX=0.5;exitY=1;exitDx=0;exitDy=0;entryX=0.5;entryY=0;entryDx=0;entryDy=0;" edge="1" parent="WIyWlLk6GJQsqaUBKTNV-1" source="ntU1Ky-i2cuIiQ6jgLuQ-4" target="ntU1Ky-i2cuIiQ6jgLuQ-40">
          <mxGeometry relative="1" as="geometry">
            <mxPoint x="230" y="170" as="sourcePoint" />
            <mxPoint x="230" y="210" as="targetPoint" />
          </mxGeometry>
        </mxCell>
        <mxCell id="ntU1Ky-i2cuIiQ6jgLuQ-45" value="&lt;div&gt;배터리가 15%이상이다&lt;/div&gt;" style="text;strokeColor=none;fillColor=none;html=1;whiteSpace=wrap;verticalAlign=middle;overflow=hidden;" vertex="1" parent="WIyWlLk6GJQsqaUBKTNV-1">
          <mxGeometry x="220" y="370" width="120" height="80" as="geometry" />
        </mxCell>
        <mxCell id="ntU1Ky-i2cuIiQ6jgLuQ-46" value="충전소 근처로 이동하기" style="rounded=1;whiteSpace=wrap;html=1;" vertex="1" parent="WIyWlLk6GJQsqaUBKTNV-1">
          <mxGeometry x="390" y="310" width="120" height="60" as="geometry" />
        </mxCell>
        <mxCell id="ntU1Ky-i2cuIiQ6jgLuQ-48" value="&lt;div&gt;배터리가 15%이상이 아니다&lt;/div&gt;" style="text;strokeColor=none;fillColor=none;html=1;whiteSpace=wrap;verticalAlign=middle;overflow=hidden;" vertex="1" parent="WIyWlLk6GJQsqaUBKTNV-1">
          <mxGeometry x="295" y="300" width="72.5" height="80" as="geometry" />
        </mxCell>
      </root>
    </mxGraphModel>
  </diagram>
</mxfile>
